<svg xmlns="http://www.w3.org/2000/svg" xmlns:xlink="http://www.w3.org/1999/xlink" width="138.06" height="93" viewBox="0 0 138.06 93">
  <defs>
    <radialGradient id="radial-gradient" cx="0.51" cy="0.494" r="0.993" gradientTransform="matrix(0.382, 0, 0, -1, 0.24, 0.633)" gradientUnits="objectBoundingBox">
      <stop offset="0" stop-color="#fff"/>
      <stop offset="1" stop-color="#fff"/>
    </radialGradient>
    <filter id="路径_68" x="0" y="0" width="138.06" height="63.85" filterUnits="userSpaceOnUse">
      <feOffset dy="3" input="SourceAlpha"/>
      <feGaussianBlur stdDeviation="3" result="blur"/>
      <feFlood flood-opacity="0.161"/>
      <feComposite operator="in" in2="blur"/>
      <feComposite in="SourceGraphic"/>
    </filter>
    <radialGradient id="radial-gradient-2" cx="-2.972" cy="2.233" r="7.026" gradientTransform="matrix(1.139, 0.333, 0.403, -0.943, 0.048, 4.857)" xlink:href="#radial-gradient"/>
    <filter id="路径_69" x="83.981" y="0.001" width="25.365" height="26.899" filterUnits="userSpaceOnUse">
      <feOffset dy="3" input="SourceAlpha"/>
      <feGaussianBlur stdDeviation="3" result="blur-2"/>
      <feFlood flood-opacity="0.161"/>
      <feComposite operator="in" in2="blur-2"/>
      <feComposite in="SourceGraphic"/>
    </filter>
    <filter id="路径_70" x="40.19" y="0" width="24.451" height="39.63" filterUnits="userSpaceOnUse">
      <feOffset dy="3" input="SourceAlpha"/>
      <feGaussianBlur stdDeviation="3" result="blur-3"/>
      <feFlood flood-opacity="0.161"/>
      <feComposite operator="in" in2="blur-3"/>
      <feComposite in="SourceGraphic"/>
    </filter>
    <filter id="路径_71" x="84.54" y="22.91" width="24.47" height="41" filterUnits="userSpaceOnUse">
      <feOffset dy="3" input="SourceAlpha"/>
      <feGaussianBlur stdDeviation="3" result="blur-4"/>
      <feFlood flood-opacity="0.161"/>
      <feComposite operator="in" in2="blur-4"/>
      <feComposite in="SourceGraphic"/>
    </filter>
    <filter id="路径_72" x="0" y="0" width="24.46" height="45.9" filterUnits="userSpaceOnUse">
      <feOffset dy="3" input="SourceAlpha"/>
      <feGaussianBlur stdDeviation="3" result="blur-5"/>
      <feFlood flood-opacity="0.161"/>
      <feComposite operator="in" in2="blur-5"/>
      <feComposite in="SourceGraphic"/>
    </filter>
    <linearGradient id="linear-gradient" x1="648.109" y1="-831.14" x2="748.126" y2="-831.14" gradientUnits="objectBoundingBox">
      <stop offset="0" stop-color="#fff"/>
      <stop offset="1" stop-color="#b5b5b6"/>
    </linearGradient>
    <filter id="路径_73" x="40.19" y="21.63" width="18.01" height="18.01" filterUnits="userSpaceOnUse">
      <feOffset dy="3" input="SourceAlpha"/>
      <feGaussianBlur stdDeviation="3" result="blur-6"/>
      <feFlood flood-opacity="0.161"/>
      <feComposite operator="in" in2="blur-6"/>
      <feComposite in="SourceGraphic"/>
    </filter>
    <filter id="路径_74" x="40.21" y="10.07" width="54.75" height="43.76" filterUnits="userSpaceOnUse">
      <feOffset dy="3" input="SourceAlpha"/>
      <feGaussianBlur stdDeviation="3" result="blur-7"/>
      <feFlood flood-opacity="0.161"/>
      <feComposite operator="in" in2="blur-7"/>
      <feComposite in="SourceGraphic"/>
    </filter>
    <filter id="路径_75" x="40.2" y="15.19" width="24.45" height="24.44" filterUnits="userSpaceOnUse">
      <feOffset dy="3" input="SourceAlpha"/>
      <feGaussianBlur stdDeviation="3" result="blur-8"/>
      <feFlood flood-opacity="0.161"/>
      <feComposite operator="in" in2="blur-8"/>
      <feComposite in="SourceGraphic"/>
    </filter>
    <filter id="路径_76" x="84.49" y="11.56" width="23.56" height="26.521" filterUnits="userSpaceOnUse">
      <feOffset dy="3" input="SourceAlpha"/>
      <feGaussianBlur stdDeviation="3" result="blur-9"/>
      <feFlood flood-opacity="0.161"/>
      <feComposite operator="in" in2="blur-9"/>
      <feComposite in="SourceGraphic"/>
    </filter>
    <filter id="寶盈集團" x="12" y="48" width="114" height="45" filterUnits="userSpaceOnUse">
      <feOffset dy="3" input="SourceAlpha"/>
      <feGaussianBlur stdDeviation="3" result="blur-10"/>
      <feFlood flood-opacity="0.478"/>
      <feComposite operator="in" in2="blur-10"/>
      <feComposite in="SourceGraphic"/>
    </filter>
  </defs>
  <g id="组_114" data-name="组 114" transform="translate(-1033 -3109)">
    <g id="_201812172327041df8t3g2l1" data-name="201812172327041df8t3g2l1" transform="translate(1041.67 3114.51)">
      <g transform="matrix(1, 0, 0, 1, -8.67, -5.51)" filter="url(#路径_68)">
        <path id="路径_68-2" data-name="路径 68" d="M51.94,36.9l.31.26-.31-.26M.33.49v27.9h0A17.84,17.84,0,0,0,30.79,41l6.35-6.35a11.29,11.29,0,0,0-4.29-.84,9.37,9.37,0,0,0-6.64,2.64,11.79,11.79,0,0,1-8.12,3.38,11.23,11.23,0,0,1-8-3.39,11.36,11.36,0,0,1-3.33-8h0A11.34,11.34,0,0,1,10,20.46l.33-.33a11.39,11.39,0,0,1,15.88.21L36.55,30.67,46.88,41a17.76,17.76,0,0,0,12.6,5.22h0a17.82,17.82,0,0,0,12.57-5.16L84.82,29.34v17c6.06,0,6.47-6.15,6.47-7.82,0,1.67-.41,7.82-6.47,7.82v-17l5.41-5,1-1,3.23-3,.1-.09a11.31,11.31,0,0,1,8-3.33h0A11.39,11.39,0,0,1,113.93,28.3V38.92c.07,2.1.83,7.39,6.46,7.39V28.39A17.85,17.85,0,0,0,90.38,15.45h0l-5.56,5.12V12.06h0v8.51l-7.53,6.91h0l-9.62,8.84h0l-.1.1a11.4,11.4,0,0,1-16.09,0l.48.45-.49-.46L41.12,26.1h0L30.78,15.77a17.86,17.86,0,0,0-24-1.11h0a11.213,11.213,0,0,0-1.09,1L5.33,16a17.75,17.75,0,0,0-5,12.37h0V.49h0" transform="translate(8.67 5.51)" fill="url(#radial-gradient)"/>
      </g>
      <g transform="matrix(1, 0, 0, 1, -8.67, -5.51)" filter="url(#路径_69)">
        <path id="路径_69-2" data-name="路径 69" d="M85.36,6.78h0L88,9.39l2.6-2.61a3.69,3.69,0,0,0,0-5.21h0a3.684,3.684,0,0,0-5.21,5.21Z" transform="translate(8.67 5.51)" fill="url(#radial-gradient-2)"/>
      </g>
      <g transform="matrix(1, 0, 0, 1, -8.67, -5.51)" filter="url(#路径_70)">
        <path id="路径_70-2" data-name="路径 70" d="M40.52.49V22.12h0l.14-.13,6.2-6.21.11-.1V8.73h0V8.31C47,6.63,46.58.49,40.52.49" transform="translate(8.67 5.51)" fill="#fff"/>
      </g>
      <g transform="matrix(1, 0, 0, 1, -8.67, -5.51)" filter="url(#路径_71)">
        <path id="路径_71-2" data-name="路径 71" d="M91.28,23.4l-1,1-5.41,5v17c6.06,0,6.47-6.15,6.47-7.82V23.4" transform="translate(8.67 5.51)" fill="rgba(255,255,255,0)"/>
      </g>
      <g transform="matrix(1, 0, 0, 1, -8.67, -5.51)" filter="url(#路径_72)">
        <path id="路径_72-2" data-name="路径 72" d="M.33.49v27.9h0A17.75,17.75,0,0,1,5.33,16l.37-.38c.35-.35.72-.66,1.09-1h0V8.73h0V8.31C6.8,6.63,6.39.49.33.49" transform="translate(8.67 5.51)" fill="#fff"/>
      </g>
      <g transform="matrix(1, 0, 0, 1, -8.67, -5.51)" filter="url(#路径_73)">
        <path id="路径_73-2" data-name="路径 73" d="M40.53,22.12h0l-.01.01h0l.01-.01" transform="translate(8.67 5.51)" fill="url(#linear-gradient)"/>
      </g>
      <g transform="matrix(1, 0, 0, 1, -8.67, -5.51)" filter="url(#路径_74)">
        <path id="路径_74-2" data-name="路径 74" d="M59.51,10.56A17.86,17.86,0,0,0,47,15.68h0l-.11.1-6.2,6.34h-.15a11.35,11.35,0,0,0,4.29.84,9.36,9.36,0,0,0,6.64-2.64A11.83,11.83,0,0,1,59.57,17a11.393,11.393,0,0,1,8.1,19.32l9.62-8.84A17.77,17.77,0,0,0,59.51,10.56" transform="translate(8.67 5.51)" fill="#fff"/>
      </g>
      <g transform="matrix(1, 0, 0, 1, -8.67, -5.51)" filter="url(#路径_75)">
        <path id="路径_75-2" data-name="路径 75" d="M46.98,15.68l-.1.1-6.21,6.21-.14.13h.14l6.21-6.34.1-.1" transform="translate(8.67 5.51)" fill="#fff"/>
      </g>
      <g transform="matrix(1, 0, 0, 1, -8.67, -5.51)" filter="url(#路径_76)">
        <path id="路径_76-2" data-name="路径 76" d="M84.82,12.06v8.51l5.56-5.12a5.7,5.7,0,0,0-5.56-3.39" transform="translate(8.67 5.51)" fill="#fff"/>
      </g>
    </g>
    <g transform="matrix(1, 0, 0, 1, 1033, 3109)" filter="url(#寶盈集團)">
      <text id="寶盈集團-2" data-name="寶盈集團" transform="translate(69 75)" fill="#fff" font-size="18" font-family="NotoSansTC-Regular, Noto Sans TC" letter-spacing="0.444em"><tspan x="-47.988" y="0">寶盈集團</tspan></text>
    </g>
  </g>
</svg>
