<svg width="121" height="64" viewBox="0 0 121 64" fill="none" xmlns="http://www.w3.org/2000/svg">
<g clip-path="url(#clip0)">
<path d="M79.0814 58.7446C79.0814 62.8935 74.3082 64 68.4851 64C62.5188 64 58.0021 62.6628 57.8601 58.7908H64.1103C64.3656 60.2203 66.241 60.5197 68.6557 60.5197C71.0417 60.5197 72.7751 60.1505 72.7751 58.5836C72.7751 57.0618 71.3257 56.8784 69.1949 56.8784H65.3308V53.5815H69.1949C71.0417 53.5815 72.0355 53.1437 72.0355 52.0597C72.0355 50.9071 70.7852 50.4918 68.3992 50.4918C66.4952 50.4918 65.0468 50.6066 64.7057 51.9438H58.4555C58.768 48.4635 62.7169 47.1949 68.4839 47.1949C73.7678 47.1949 78.0865 48.002 78.0865 51.6669C78.0865 53.3496 76.637 54.3874 74.7627 54.9863C77.0927 55.4714 79.0814 56.5092 79.0814 58.7446Z" fill="white"/>
<path d="M101.769 55.5873C101.769 61.7646 96.7121 64.0011 90.9737 64.0011C85.2628 64.0011 80.2068 61.7657 80.2068 55.5873C80.2068 49.4326 85.264 47.1972 90.9737 47.1972C96.7121 47.196 101.769 49.4326 101.769 55.5873ZM95.4619 55.5873C95.4619 53.0052 94.4955 50.6539 90.9726 50.6539C87.4783 50.6539 86.4833 53.0052 86.4833 55.5873C86.4833 58.192 87.4771 60.5208 90.9726 60.5208C94.4955 60.5197 95.4619 58.192 95.4619 55.5873Z" fill="white"/>
<path d="M106.859 61.168H105.35V63.6544H104V61.168H102.491V60.4195H106.86V61.168H106.859Z" fill="white"/>
<path d="M107.162 60.4195H108.512V63.6544H107.162V60.4195ZM111.861 60.4195V63.6544H110.511V62.4343H109.349V61.6441H110.511V60.4195H111.861Z" fill="white"/>
<path d="M63.6547 40.6125C63.7017 40.6406 63.7166 40.6541 63.7349 40.6586C63.7509 40.6631 63.775 40.6665 63.7853 40.6575C69.0886 36.3127 74.3919 31.9668 79.6815 27.6321C79.6666 27.5747 79.6655 27.5556 79.6563 27.541C79.6483 27.5275 79.6334 27.5139 79.6197 27.5094C79.5842 27.4993 79.5475 27.4903 79.5109 27.4903C75.4166 27.4824 71.3212 27.4757 67.2269 27.4678C67.2097 27.4678 67.1926 27.4577 67.093 27.425C67.0483 24.6651 67.0037 21.877 66.9567 18.9977C67.6231 19.2499 68.2368 19.4221 68.8985 19.3793C69.5259 19.3388 70.158 19.3703 70.8712 19.3703C70.8094 17.3825 70.6732 15.442 70.5736 13.4564C69.3382 13.4564 68.1532 13.4564 66.9842 13.4564C66.8468 13.0512 66.746 7.85662 66.8468 7.01018C66.8915 7.00005 66.951 6.96516 66.9888 6.98091C67.5727 7.23192 68.1898 7.18802 68.8024 7.18802C83.5834 7.18802 98.3634 7.18802 113.144 7.18802C113.361 7.18802 113.576 7.18802 113.904 7.18802C113.727 7.37712 113.64 7.48518 113.538 7.57748C111.485 9.43808 109.428 11.2942 107.38 13.1604C107.16 13.3608 106.94 13.4677 106.635 13.4474C106.29 13.4249 105.942 13.4418 105.508 13.4418C106.347 15.4667 107.152 17.4084 107.964 19.3658C112.105 19.3658 116.216 19.3658 120.408 19.3658C120.309 19.5189 120.26 19.6258 120.185 19.7102C117.928 22.1944 115.666 24.6741 113.415 27.1628C113.196 27.4048 112.969 27.5106 112.643 27.4914C112.24 27.4678 111.835 27.4858 111.351 27.4858C111.452 27.7481 111.517 27.9327 111.593 28.1128C113.376 32.4136 115.155 36.7168 116.95 41.0132C117.088 41.3418 117.074 41.5625 116.848 41.8517C113.891 45.6405 110.948 49.4416 108 53.2382C107.912 53.3519 107.814 53.4577 107.648 53.6513C104.944 44.8908 102.265 36.208 99.585 27.5184C96.7307 27.5184 93.9153 27.5184 91.0999 27.5184C91.0885 27.5455 91.077 27.5725 91.0656 27.5995C92.0983 28.2636 93.131 28.9277 94.1912 29.6087C94.0573 29.7482 93.9622 29.8563 93.8569 29.9542C88.9818 34.5286 84.1044 39.0997 79.2361 43.6797C78.9568 43.9431 78.6705 44.0331 78.2927 44.032C72.5967 44.0174 66.9006 44.0174 61.2034 43.9994C60.7661 43.9982 60.4352 44.113 60.0997 44.3922C56.5813 47.33 53.0504 50.2531 49.5217 53.1808C49.3694 53.308 49.2091 53.4262 48.9343 53.6423C49.3293 50.1822 49.7484 46.8561 50.1491 43.5289C50.5521 40.1859 50.954 36.8428 51.357 33.4998C51.7577 30.1748 52.1585 26.851 52.5615 23.526C52.9668 20.1875 53.3744 16.8501 53.7866 13.4722C50.6861 13.4722 47.6417 13.4722 44.5286 13.4722C43.4112 18.5678 42.2914 23.6712 41.1625 28.8129C43.1501 30.6003 45.1366 32.3855 47.1242 34.1718C47.115 34.209 47.1059 34.2461 47.0967 34.2821C46.9044 34.2866 46.712 34.2945 46.5197 34.2934C42.4804 34.2911 38.441 34.2923 34.4006 34.2799C33.9941 34.2787 33.6541 34.3688 33.3106 34.5939C28.6908 37.6105 24.0607 40.6113 19.4397 43.6268C19.0688 43.8688 18.7058 43.9904 18.2513 43.9892C12.3503 43.9723 6.44818 43.9735 0.547202 43.969C0.381187 43.969 0.215172 43.969 0.0491563 43.969C0.0319823 43.9262 0.0159533 43.8834 -0.0012207 43.8395C8.02361 39.0862 16.0484 34.3328 24.1374 29.54C23.1573 28.5011 22.2139 27.5016 21.2464 26.4773C22.7772 22.6998 24.3034 18.9347 25.8617 15.0919C27.9019 16.9221 29.8872 18.7017 31.9493 20.551C32.7313 18.1524 33.4869 15.8348 34.2689 13.4384C33.9941 13.4384 33.796 13.4384 33.598 13.4384C30.5261 13.4384 27.4554 13.4328 24.3836 13.4463C24.0023 13.4474 23.7229 13.3405 23.4447 13.0861C21.4548 11.266 19.45 9.46172 17.451 7.65064C17.3216 7.53245 17.2025 7.40301 16.985 7.18465C17.3296 7.18465 17.5449 7.18465 17.7601 7.18465C32.6156 7.18465 47.47 7.18465 62.3255 7.18577C62.8476 7.18577 63.3674 7.20603 63.8608 6.98654C63.9204 6.96065 64.0016 6.98317 64.1367 6.98317L63.6547 40.6125ZM78.3351 19.3365C84.6196 19.3365 90.7988 19.3365 97.0581 19.3365C96.4433 17.3442 95.8422 15.3958 95.2491 13.4722C90.4164 13.4722 85.658 13.4722 80.8791 13.4722C80.8883 13.6095 80.8871 13.7176 80.9031 13.8234C81.0382 14.6901 81.1573 15.5602 81.3233 16.4212C81.3978 16.8096 81.3302 17.0606 80.9879 17.3015C80.2311 17.8327 79.5063 18.4068 78.7701 18.9662C78.6453 19.0596 78.5308 19.1688 78.3351 19.3365Z" fill="white"/>
<path d="M22.3892 2.90745C22.3984 3.60081 21.8041 3.97226 21.1103 3.97226H16.9783V0.00679752H20.8138C21.5133 0.00342074 22.1041 0.378243 22.095 1.06936C22.095 1.44981 21.9152 1.74246 21.6267 1.92143C22.0824 2.06663 22.3892 2.40881 22.3892 2.90745ZM18.5503 0.947792V1.48132H20.3718C20.5069 1.48132 20.618 1.34513 20.618 1.21231C20.618 1.07949 20.5069 0.946667 20.3718 0.946667H18.5503V0.947792ZM20.6661 3.02789C20.8012 3.02789 20.9122 2.89507 20.9122 2.76225C20.9122 2.62943 20.8012 2.49661 20.6661 2.49661H18.5503V3.02789H20.6661Z" fill="white"/>
<path d="M49.8974 0.00564575H51.7671L53.931 3.97111H52.1609L51.8426 3.29237H49.823L49.5047 3.97111H47.7346L49.8974 0.00564575ZM50.2786 2.32436H51.3858L50.8339 1.15262L50.2786 2.32436Z" fill="white"/>
<path d="M80.6513 2.61137V3.96546H79.0793V0H80.6513V1.35409H81.3383L82.8176 0H84.8819L82.7901 1.98217L84.8819 3.96433H82.8176L81.3383 2.61137H80.6513Z" fill="white"/>
<path d="M113.915 0V3.96546H112.343V0H113.915Z" fill="white"/>
</g>
<defs>
<clipPath id="clip0">
<rect width="120.407" height="64" fill="white"/>
</clipPath>
</defs>
</svg>
