<svg width="48" height="48" viewBox="0 0 48 48" fill="none" xmlns="http://www.w3.org/2000/svg">
<circle cx="24" cy="24" r="23.5" stroke="white"/>
<path d="M20.2825 32.0976C27.8295 32.0976 31.9592 25.9025 31.9592 20.5393C31.9592 20.365 31.9592 20.1908 31.9512 20.0165C32.7515 19.4461 33.4478 18.7252 34 17.9092C33.2637 18.234 32.4714 18.4479 31.6391 18.5509C32.4874 18.0518 33.1357 17.2517 33.4478 16.301C32.6555 16.7684 31.7751 17.1012 30.8387 17.2834C30.0864 16.4912 29.022 16 27.8455 16C25.5806 16 23.7399 17.8221 23.7399 20.064C23.7399 20.3809 23.7799 20.6898 23.8439 20.9909C20.4346 20.8245 17.4094 19.2005 15.3846 16.7447C15.0324 17.3467 14.8323 18.0439 14.8323 18.7886C14.8323 20.1987 15.5606 21.4424 16.6571 22.1713C15.9848 22.1475 15.3525 21.9653 14.8003 21.6642C14.8003 21.6801 14.8003 21.6959 14.8003 21.7197C14.8003 23.6844 16.2169 25.3321 18.0896 25.7045C17.7455 25.7995 17.3854 25.8471 17.0092 25.8471C16.7451 25.8471 16.489 25.8233 16.2409 25.7758C16.7611 27.3919 18.2817 28.5643 20.0744 28.596C18.6659 29.6893 16.8972 30.3389 14.9764 30.3389C14.6483 30.3389 14.3201 30.323 14 30.2834C15.8087 31.4242 17.9696 32.0976 20.2825 32.0976Z" fill="white"/>
</svg>
